<svg xmlns="http://www.w3.org/2000/svg" width="256" height="256"><path fill-opacity=".016" d="M0 128.004v128.004l128.25-.254 128.25-.254.254-127.75L257.008 0H0v128.004m.485.496c0 70.4.119 99.053.265 63.672.146-35.38.146-92.98 0-128C.604 29.153.485 58.1.485 128.5" fill="#1976D2" fill-rule="evenodd"/><path fill-opacity=".259" d="M101.5 1.581C83.747 4.69 65.197 12.123 50.279 22.105c-15.095 10.1-33.695 30.922-41.638 46.612-2.445 4.83-2.635 6.127-2.566 17.5L6.151 98.5l2.78-8C25.682 42.296 66.889 11.363 117.114 9.292c21.832-.901 38.533 2.494 57.452 11.678 33.357 16.192 56.733 46.452 65.04 84.192 2.285 10.385 2.281 35.718-.007 46.172-10.62 48.519-45.874 83.766-94.265 94.247-10.602 2.296-35.941 2.32-46.172.043-42.973-9.565-75.009-37.43-89.781-78.091L6.1 158.5l-.05 12.516L6 183.532l4.039 6.912c16.984 29.064 42.005 49.767 71.99 59.566 14.133 4.618 23.506 5.991 40.831 5.981 12.945-.008 17.491-.429 26.379-2.445 38.023-8.625 69.344-32.604 86.529-66.243 10.498-20.55 14.232-36.056 14.232-59.1 0-9.409-.582-18.049-1.564-23.226-10.399-54.819-55.412-97.194-110.41-103.938-11.381-1.395-26.768-1.167-36.526.542m27.656 73.731c-1.548 1.865-28.274 92.688-27.597 93.783.666 1.078 10.444 1.192 12.093.14.633-.404 6.113-17.61 12.177-38.235 17.016-57.874 16.328-55.282 14.917-56.178-2.036-1.293-10.404-.939-11.59.49m-69.448 33.912L28.916 123.44l.292 6.026.292 6.026L60 149.681c16.775 7.804 30.857 14.218 31.294 14.254.436.036.661-3.165.5-7.112l-.294-7.178-22.798-9.974c-12.539-5.486-22.439-10.304-22-10.706.439-.402 10.81-5.12 23.048-10.485L92 108.726v-6.863c0-3.775-.338-6.861-.75-6.859-.412.002-14.606 6.401-31.542 14.22m89.899-12.642c-.334.87-.607 3.935-.607 6.811v5.23l22.75 9.789c12.512 5.385 23.115 10.132 23.561 10.55.446.418-9.679 5.257-22.5 10.753l-23.311 9.992-.296 7.271c-.25 6.126-.061 7.181 1.202 6.696.824-.316 15.038-6.767 31.587-14.336l30.089-13.762-.291-6.378-.291-6.377-30.436-13.91C164.324 101.26 150.535 95 150.421 95c-.114 0-.48.712-.814 1.582" fill="#1976D2" fill-rule="evenodd"/><path fill-opacity=".613" d="M108.466 1.07C88.455 2.971 65.69 11.639 48 24.095 33.406 34.37 18.973 50.676 9.963 67.067L6 74.277l.05 11.611L6.1 97.5l3.316-9.13C20.568 57.666 40.356 35.48 69.5 21.003 89.197 11.219 107.587 7.568 130 8.995c92.199 5.866 142.866 108.868 91.517 186.047-8.021 12.056-23.768 27.337-35.955 34.89-28.647 17.756-64.319 22.722-96.467 13.429-37.268-10.773-67.59-39.72-80.511-76.861l-2.435-7-.075 11.541L6 182.582l4.75 8.222c2.612 4.522 6.714 10.898 9.114 14.169 6.024 8.207 22.206 23.64 30.636 29.216 32.948 21.794 71.599 27.546 109.183 16.248 40.886-12.291 73.064-44.868 85.256-86.312 7.628-25.929 6.499-56.581-2.987-81.125-16.067-41.574-53.523-72.858-96.27-80.406C135.298.761 118.827.086 108.466 1.07m17.927 82.68c-1.469 4.813-7.724 25.85-13.9 46.75l-11.23 38 6.017.302c3.309.165 6.361-.06 6.781-.5.42-.441 6.673-21.052 13.896-45.802 7.222-24.75 13.322-45.562 13.556-46.25.31-.914-1.303-1.25-6.012-1.25h-6.437l-2.671 8.75M60 109.417l-30.5 14.152V135.132l30 13.919c16.5 7.656 30.563 13.926 31.25 13.934.871.011 1.25-1.916 1.25-6.345v-6.36l-23.489-10.318c-12.919-5.674-23.271-10.536-23.004-10.803.267-.266 10.725-5.024 23.239-10.572L91.5 108.5l.304-5.896c.168-3.242-.057-6.22-.5-6.617-.442-.397-14.529 5.647-31.304 13.43m90-7.608v6.928l22.75 9.766c12.512 5.371 23.097 10.075 23.521 10.452.424.378-9.701 5.208-22.5 10.734L150.5 149.736l-.296 6.632c-.162 3.648.072 6.632.521 6.632.45 0 14.308-6.213 30.796-13.806l29.979-13.806.295-5.534c.194-3.634-.149-5.897-1-6.592-.712-.582-14.345-6.997-30.295-14.256-15.95-7.259-29.338-13.407-29.75-13.661-.412-.255-.75 2.654-.75 6.464" fill="#1976D2" fill-rule="evenodd"/><path fill-opacity=".972" d="M99.922 2.492C61.795 9.697 29.603 32.746 10.522 66.5L6 74.5l.05 11 .05 11 3.36-9.254c6.294-17.331 15.03-30.924 28.459-44.281C68.535 12.513 113.642.805 154.876 12.606c37.413 10.708 68.967 40.74 81.081 77.171 4.656 14.004 6.043 22.741 6.043 38.07 0 21.448-2.912 33.991-12.465 53.685-11.381 23.466-29.728 41.949-53.535 53.932C158.089 244.479 142.878 248 121.847 248c-15.329 0-24.066-1.387-38.07-6.043-34.213-11.376-61.708-38.5-74.846-73.837l-2.834-7.62-.048 10.347c-.048 10.163.022 10.484 3.941 18 17.087 32.777 49.278 56.445 88.063 64.749 11.429 2.448 37.067 2.44 48.447-.014 52.56-11.333 90.03-48.961 101.156-101.582 2.469-11.677 2.431-36.186-.073-47.96-10.849-50.991-45.998-87.302-96.987-100.19-10.744-2.716-39.422-3.484-50.674-1.358M129 75.425c0 .234-6.075 20.976-13.5 46.093-7.425 25.118-13.5 46.077-13.5 46.575 0 .499 2.673.907 5.939.907h5.94l2.493-8.25C123.121 138.417 141 76.902 141 76.013c0-.571-2.617-1.013-6-1.013-3.3 0-6 .191-6 .425m-69.255 34.373L29.989 123.5l.256 5.904.255 5.903 29.963 13.847C76.943 156.769 90.556 163 90.713 163c.158 0 .287-2.874.287-6.387v-6.387l-21.75-9.631c-11.962-5.297-22.411-10.049-23.22-10.558-1.587-1 2.156-2.869 30.22-15.089L91 108.526v-6.263c0-3.445-.338-6.242-.75-6.215-.412.026-14.14 6.214-30.505 13.75M150 102.252v6.251l15.25 6.423c23.625 9.951 32.174 14.058 31.168 14.971-.505.459-11.156 5.229-23.668 10.6L150 150.263v6.452c0 3.548.405 6.302.899 6.118.495-.183 14.206-6.408 30.469-13.833l29.569-13.5.032-6.104.031-6.104-29.934-13.646C164.602 102.141 150.877 96 150.566 96c-.311 0-.566 2.813-.566 6.252" fill="#1976D2" fill-rule="evenodd"/></svg>